<?xml version="1.0" encoding="UTF-8"?>
<svg id="nodes" xmlns="http://www.w3.org/2000/svg" xmlns:xlink="http://www.w3.org/1999/xlink" viewBox="0 0 881.04 388.05">
  <defs>
    <style>
      .cls-1 {
        fill: url(#linear-gradient);
      }

      .cls-2 {
        fill: #fff;
      }
    </style>
    <linearGradient id="linear-gradient" x1="22.06" y1="373.41" x2="354.28" y2="-10.21" gradientUnits="userSpaceOnUse">
      <stop offset=".28" stop-color="#1ab08f"/>
      <stop offset=".72" stop-color="#35b948"/>
    </linearGradient>
  </defs>
  <g>
    <path class="cls-2" d="M472.99,136.99h-5.06l-5.13-13.93h-22.02l-5.13,13.93h-5.06l18.44-48.63h5.83l18.13,48.63Zm-21.16-43.72l-9.34,25.29h18.59l-9.26-25.29Z"/>
    <path class="cls-2" d="M494.85,138c-10.74,0-17.43-7.7-17.43-18.75s7.39-18.91,17.51-18.91c4.36,0,8.09,1.09,11.13,3.03l-1.24,4.36c-2.72-1.79-6.15-2.88-9.88-2.88-7.7,0-12.53,5.76-12.53,14.24s5.06,14.39,12.6,14.39c3.58,0,7.16-1.17,9.88-2.96l1.01,4.43c-3.03,1.87-6.92,3.03-11.05,3.03Z"/>
    <path class="cls-2" d="M529.55,138c-10.74,0-17.43-7.7-17.43-18.75s7.39-18.91,17.51-18.91c4.36,0,8.09,1.09,11.13,3.03l-1.24,4.36c-2.72-1.79-6.15-2.88-9.88-2.88-7.7,0-12.53,5.76-12.53,14.24s5.06,14.39,12.6,14.39c3.58,0,7.16-1.17,9.88-2.96l1.01,4.43c-3.03,1.87-6.92,3.03-11.05,3.03Z"/>
    <path class="cls-2" d="M551.72,119.71c.16,8.01,4.98,13.77,12.45,13.77,3.89,0,7.62-1.17,10.35-2.96l.93,4.43c-3.03,1.87-7,3.03-11.44,3.03-10.27,0-17.19-7.7-17.19-18.52s7.16-19.14,16.81-19.14c7.86,0,12.99,5.13,12.99,13.15,0,1.87-.31,4.12-.78,5.68l-24.12,.16v.39Zm20.07-4.28c.08-.39,.08-1.17,.08-1.56,0-5.45-2.96-9.18-8.56-9.18-6.38,0-10.5,4.9-11.28,10.81l19.76-.08Z"/>
    <path class="cls-2" d="M585.72,136.99v-52.44l4.82-1.01v53.45h-4.82Z"/>
    <path class="cls-2" d="M604.31,119.71c.16,8.01,4.98,13.77,12.45,13.77,3.89,0,7.62-1.17,10.35-2.96l.93,4.43c-3.03,1.87-7,3.03-11.44,3.03-10.27,0-17.19-7.7-17.19-18.52s7.16-19.14,16.81-19.14c7.86,0,12.99,5.13,12.99,13.15,0,1.87-.31,4.12-.78,5.68l-24.12,.16v.39Zm20.07-4.28c.08-.39,.08-1.17,.08-1.56,0-5.45-2.96-9.18-8.56-9.18-6.38,0-10.5,4.9-11.28,10.81l19.76-.08Z"/>
    <path class="cls-2" d="M643.13,136.99h-4.82v-35.63l4.82-1.01v7.62c2.33-4.59,5.83-7.62,10.5-7.62,2.33,0,4.59,.7,6.22,1.63l-1.24,4.51c-1.56-.93-3.42-1.56-5.45-1.56-3.73,0-7.24,2.8-10.04,9.18v22.87Z"/>
    <path class="cls-2" d="M684.29,132.71c-2.41,2.96-6.22,5.29-10.43,5.29-6.54,0-11.28-4.2-11.28-9.88,0-6.46,5.06-11.75,21.63-12.68v-2.1c0-5.6-2.49-8.48-8.4-8.48-3.89,0-8.64,2.02-11.67,4.28l-1.09-4.51c3.19-2.26,8.56-4.28,13.23-4.28,8.25,0,12.84,3.73,12.76,12.76v17.12c0,2.57,.47,3.66,3.58,3.58l-.31,3.97c-4.67,.31-7.24-1.56-7.78-5.06h-.23Zm-.08-14c-12.22,1.4-16.57,4.12-16.57,8.87,0,3.81,3.11,6.22,7.31,6.22,3.81,0,7.08-2.18,9.26-4.67v-10.43Z"/>
    <path class="cls-2" d="M709.58,138.15c-6.77,0-9.8-3.73-9.57-11.2l.54-21.08-5.45-.31,.23-3.03,5.37-1.24,.23-8.09h4.59l-.23,8.32h11.9l-.23,4.28h-11.83l-.54,21.32c-.16,4.51,1.48,6.69,5.21,6.69,2.33,0,4.67-.78,6.85-1.71l.86,4.2c-2.49,1.17-5.37,1.87-7.94,1.87Z"/>
    <path class="cls-2" d="M727.55,119.71c.16,8.01,4.98,13.77,12.45,13.77,3.89,0,7.62-1.17,10.35-2.96l.93,4.43c-3.03,1.87-7,3.03-11.44,3.03-10.27,0-17.19-7.7-17.19-18.52s7.16-19.14,16.81-19.14c7.86,0,12.99,5.13,12.99,13.15,0,1.87-.31,4.12-.78,5.68l-24.12,.16v.39Zm20.07-4.28c.08-.39,.08-1.17,.08-1.56,0-5.45-2.96-9.18-8.56-9.18-6.38,0-10.5,4.9-11.28,10.81l19.76-.08Z"/>
    <path class="cls-2" d="M785.51,84.55l4.82-1.01v53.45h-4.82v-3.35c-2.33,2.18-5.91,4.36-10.35,4.36-9.57,0-15.95-7.7-15.95-18.52s7.39-18.91,17.66-18.91c3.03,0,6.3,.86,8.64,1.94v-17.97Zm-8.87,20.38c-7.62,0-12.45,6.07-12.45,14.47s4.59,14.16,11.83,14.16c3.66,0,7-1.63,9.49-3.97,0,.16,0-21.94,0-21.94-2.18-1.71-5.45-2.72-8.87-2.72Z"/>
    <path class="cls-2" d="M477.74,172.31l-15.95,42.17h-5.45l-16.11-42.25-.86,42.56h-4.9l1.63-48.63h6.69l16.42,42.95,16.18-42.95h6.61l1.56,48.63h-5.06l-.78-42.48Z"/>
    <path class="cls-2" d="M512.9,210.51c-2.41,2.96-6.22,5.29-10.43,5.29-6.54,0-11.28-4.2-11.28-9.88,0-6.46,5.06-11.75,21.63-12.68v-2.1c0-5.6-2.49-8.48-8.4-8.48-3.89,0-8.64,2.02-11.67,4.28l-1.09-4.51c3.19-2.26,8.56-4.28,13.23-4.28,8.25,0,12.84,3.73,12.76,12.76v17.12c0,2.57,.47,3.66,3.58,3.58l-.31,3.97c-4.67,.31-7.24-1.56-7.78-5.06h-.23Zm-.08-14c-12.22,1.4-16.57,4.12-16.57,8.87,0,3.81,3.11,6.22,7.31,6.22,3.81,0,7.08-2.18,9.26-4.67v-10.43Z"/>
    <path class="cls-2" d="M538.19,215.95c-6.77,0-9.8-3.73-9.57-11.2l.54-21.08-5.45-.31,.23-3.03,5.37-1.24,.23-8.09h4.59l-.23,8.32h11.9l-.23,4.28h-11.83l-.54,21.32c-.16,4.51,1.48,6.69,5.21,6.69,2.33,0,4.67-.78,6.85-1.71l.86,4.2c-2.49,1.17-5.37,1.87-7.94,1.87Z"/>
    <path class="cls-2" d="M556.16,197.51c.16,8.01,4.98,13.77,12.45,13.77,3.89,0,7.62-1.17,10.35-2.96l.93,4.43c-3.03,1.87-7,3.03-11.44,3.03-10.27,0-17.19-7.7-17.19-18.52s7.16-19.14,16.81-19.14c7.86,0,12.99,5.13,12.99,13.15,0,1.87-.31,4.12-.78,5.68l-24.12,.16v.39Zm20.07-4.28c.08-.39,.08-1.17,.08-1.56,0-5.45-2.96-9.18-8.56-9.18-6.38,0-10.5,4.9-11.28,10.81l19.76-.08Z"/>
    <path class="cls-2" d="M594.98,214.79h-4.82v-35.63l4.82-1.01v7.62c2.33-4.59,5.83-7.62,10.5-7.62,2.33,0,4.59,.7,6.22,1.63l-1.24,4.51c-1.56-.93-3.42-1.56-5.45-1.56-3.73,0-7.24,2.8-10.04,9.18v22.87Z"/>
    <path class="cls-2" d="M620.34,170.98c-2.18,0-3.27-1.71-3.27-3.58s1.09-3.42,3.27-3.42,3.27,1.63,3.27,3.42-1.09,3.58-3.27,3.58Zm-2.41,43.8v-35.63l4.82-1.01v36.64h-4.82Z"/>
    <path class="cls-2" d="M652.78,210.51c-2.41,2.96-6.22,5.29-10.43,5.29-6.54,0-11.28-4.2-11.28-9.88,0-6.46,5.06-11.75,21.63-12.68v-2.1c0-5.6-2.49-8.48-8.4-8.48-3.89,0-8.64,2.02-11.67,4.28l-1.09-4.51c3.19-2.26,8.56-4.28,13.23-4.28,8.25,0,12.84,3.73,12.76,12.76v17.12c0,2.57,.47,3.66,3.58,3.58l-.31,3.97c-4.67,.31-7.24-1.56-7.78-5.06h-.23Zm-.08-14c-12.22,1.4-16.57,4.12-16.57,8.87,0,3.81,3.11,6.22,7.31,6.22,3.81,0,7.08-2.18,9.26-4.67v-10.43Z"/>
    <path class="cls-2" d="M668.26,214.79v-52.44l4.82-1.01v53.45h-4.82Z"/>
    <path class="cls-2" d="M692.93,215.8c-4.2,0-8.64-1.24-11.67-3.19l1.32-4.43c3.03,2.02,6.85,3.27,10.5,3.27,4.28,0,8.01-2.1,8.01-5.99,0-4.28-4.51-5.52-8.95-6.92-4.9-1.48-10.35-3.89-10.35-10.11s5.37-10.27,12.06-10.27c3.89,0,7.78,1.09,10.81,2.65l-1.4,4.36c-2.96-1.63-6.61-2.65-9.73-2.65-4.36,0-7.16,2.02-7.16,5.45,0,4.05,4.2,5.29,8.79,6.69,5.06,1.48,10.5,3.81,10.5,10.43s-5.6,10.74-12.76,10.74Z"/>
    <path class="cls-2" d="M435.65,292.59v-48.63h4.98v43.96h24.04v4.67h-29.02Z"/>
    <path class="cls-2" d="M490.89,288.31c-2.41,2.96-6.22,5.29-10.43,5.29-6.54,0-11.28-4.2-11.28-9.88,0-6.46,5.06-11.75,21.63-12.68v-2.1c0-5.6-2.49-8.48-8.4-8.48-3.89,0-8.64,2.02-11.67,4.28l-1.09-4.51c3.19-2.26,8.56-4.28,13.23-4.28,8.25,0,12.84,3.73,12.76,12.76v17.12c0,2.57,.47,3.66,3.58,3.58l-.31,3.97c-4.67,.31-7.24-1.56-7.78-5.06h-.23Zm-.08-14c-12.22,1.4-16.57,4.12-16.57,8.87,0,3.81,3.11,6.22,7.31,6.22,3.81,0,7.08-2.18,9.26-4.67v-10.43Z"/>
    <path class="cls-2" d="M519.9,293.6c-2.88,0-6.38-.86-8.71-1.95l-4.82,2.1v-53.61l4.82-1.01v21.55c2.41-2.26,6.15-4.51,10.74-4.51,9.41,0,15.56,7.47,15.56,18.13,0,11.2-7.31,19.29-17.58,19.29Zm1.09-32.99c-3.89,0-7.24,1.63-9.8,3.97,0-.23,0,21.86,0,21.86,2.18,1.71,5.52,2.8,8.95,2.8,7.62,0,12.37-6.15,12.37-14.7,0-8.09-4.43-13.93-11.52-13.93Z"/>
    <path class="cls-2" d="M560.98,293.6c-9.88,0-17.19-7.31-17.19-18.75s7.63-18.91,17.58-18.91,17.12,7.31,17.12,18.75-7.62,18.91-17.51,18.91Zm.16-33.3c-7.55,0-12.53,5.99-12.53,14.39s5.06,14.55,12.6,14.55,12.53-5.99,12.53-14.39-5.06-14.55-12.6-14.55Z"/>
    <path class="cls-2" d="M592.26,292.59h-4.82v-35.63l4.82-1.01v7.62c2.33-4.59,5.83-7.62,10.5-7.62,2.33,0,4.59,.7,6.22,1.63l-1.24,4.51c-1.56-.93-3.42-1.56-5.45-1.56-3.73,0-7.24,2.8-10.04,9.18v22.87Z"/>
    <path class="cls-2" d="M633.41,288.31c-2.41,2.96-6.22,5.29-10.43,5.29-6.54,0-11.28-4.2-11.28-9.88,0-6.46,5.06-11.75,21.63-12.68v-2.1c0-5.6-2.49-8.48-8.4-8.48-3.89,0-8.64,2.02-11.67,4.28l-1.09-4.51c3.19-2.26,8.56-4.28,13.23-4.28,8.25,0,12.84,3.73,12.76,12.76v17.12c0,2.57,.47,3.66,3.58,3.58l-.31,3.97c-4.67,.31-7.24-1.56-7.78-5.06h-.23Zm-.08-14c-12.22,1.4-16.57,4.12-16.57,8.87,0,3.81,3.11,6.22,7.31,6.22,3.81,0,7.08-2.18,9.26-4.67v-10.43Z"/>
    <path class="cls-2" d="M658.7,293.75c-6.77,0-9.8-3.73-9.57-11.2l.54-21.08-5.45-.31,.23-3.03,5.37-1.24,.23-8.09h4.59l-.23,8.32h11.9l-.23,4.28h-11.83l-.54,21.32c-.16,4.51,1.48,6.69,5.21,6.69,2.33,0,4.67-.78,6.85-1.71l.86,4.2c-2.49,1.17-5.37,1.87-7.94,1.87Z"/>
    <path class="cls-2" d="M688.96,293.6c-9.88,0-17.19-7.31-17.19-18.75s7.62-18.91,17.58-18.91,17.12,7.31,17.12,18.75-7.62,18.91-17.51,18.91Zm.16-33.3c-7.55,0-12.53,5.99-12.53,14.39s5.06,14.55,12.6,14.55,12.53-5.99,12.53-14.39-5.06-14.55-12.6-14.55Z"/>
    <path class="cls-2" d="M720.23,292.59h-4.82v-35.63l4.82-1.01v7.62c2.33-4.59,5.83-7.62,10.5-7.62,2.33,0,4.59,.7,6.22,1.63l-1.24,4.51c-1.56-.93-3.42-1.56-5.45-1.56-3.73,0-7.24,2.8-10.04,9.18v22.87Z"/>
    <path class="cls-2" d="M757.5,292.2l-2.88,7.7c-3.27,8.71-6.69,11.2-11.52,11.2-2.72,0-4.75-.7-6.92-1.63l1.48-4.43c1.71,.93,3.5,1.56,5.45,1.56,2.72,0,4.75-1.48,7.31-8.25l2.41-6.3-13.93-35.09h5.21l11.2,29.41,10.97-29.41h5.06l-13.85,35.24Z"/>
    <path class="cls-2" d="M812.11,244.35c-1.63-.78-3.5-1.48-5.45-1.48-3.97,0-5.91,2.57-5.91,8.33v5.91h11.2l-.23,4.28h-10.97v31.2h-4.75v-31.04l-5.76-.39,.31-3.03,5.37-1.24,.08-5.6c.16-9.41,4.51-12.84,10.74-12.84,2.41,0,4.9,.78,6.54,1.56,0,.08-1.17,4.43-1.17,4.36Z"/>
    <path class="cls-2" d="M833.04,293.6c-9.88,0-17.19-7.31-17.19-18.75s7.63-18.91,17.58-18.91,17.12,7.31,17.12,18.75-7.62,18.91-17.51,18.91Zm.16-33.3c-7.55,0-12.53,5.99-12.53,14.39s5.06,14.55,12.6,14.55,12.53-5.99,12.53-14.39-5.06-14.55-12.6-14.55Z"/>
    <path class="cls-2" d="M864.32,292.59h-4.82v-35.63l4.82-1.01v7.62c2.33-4.59,5.83-7.62,10.5-7.62,2.33,0,4.59,.7,6.22,1.63l-1.24,4.51c-1.56-.93-3.42-1.56-5.45-1.56-3.73,0-7.24,2.8-10.04,9.18v22.87Z"/>
    <path class="cls-2" d="M458.68,357.08c0-4.05-3.66-5.52-10.81-7.47-7-1.94-15.09-5.06-15.09-14.63,0-8.64,6.61-14.39,17.43-14.39,6.61,0,12.06,1.63,16.73,4.28l-2.33,8.01c-4.28-2.57-9.72-4.2-14.32-4.2-5.68,0-8.17,2.41-8.17,5.76,0,3.97,4.36,5.52,11.05,7.31,7.31,2.02,14.86,5.37,14.86,14.63s-7.08,15.17-18.52,15.17c-6.46,0-12.91-1.71-17.51-4.51l2.18-8.17c4.51,2.72,9.65,4.67,15.48,4.67,5.29,0,9.03-2.57,9.03-6.46Z"/>
    <path class="cls-2" d="M484.89,334.52v21.86c0,5.29,2.18,7,6.07,7,3.27,0,6.15-1.48,7.86-3.11v-25.75h9.18v35.63l-9.18,1.24v-5.29c-2.96,3.19-7.24,5.45-11.83,5.45-7,0-11.28-4.67-11.28-12.37v-24.66h9.18Z"/>
    <path class="cls-2" d="M528.93,371.63c-4.67,0-10.35-1.32-13.93-3.35l2.02-7.16c3.58,2.02,8.17,3.35,12.14,3.35,3.58,0,5.91-1.48,5.91-3.97,0-2.8-3.03-3.81-7.24-4.82-6.77-1.56-12.14-4.36-12.14-11.13s5.68-11.2,14.32-11.2c4.44,0,9.73,1.17,13.07,2.88l-2.02,7.16c-3.5-1.79-8.09-2.96-11.28-2.96s-5.37,1.24-5.37,3.58c0,2.72,3.03,3.66,7.24,4.67,6.85,1.63,12.22,4.28,12.22,11.28s-5.76,11.67-14.94,11.67Z"/>
    <path class="cls-2" d="M564.01,371.55c-8.01,0-12.21-3.5-11.9-12.14l.54-16.88-5.6-.62,.23-5.83,5.6-1.79,.16-7.94h8.87l-.16,8.4h10.11l-.23,7.55h-10.43l-.47,16.57c-.08,3.35,1.63,4.9,4.75,4.9,1.87,0,3.73-.47,5.6-1.09l1.24,7.47c-2.72,.93-5.21,1.4-8.33,1.4Z"/>
    <path class="cls-2" d="M598.01,366.26c-2.57,3.11-5.68,5.29-10.11,5.29-6.46,0-11.13-4.43-11.13-10.11,0-6.61,4.82-12.22,21.24-12.76v-.86c0-4.82-2.02-6.85-7.16-6.85-3.66,0-8.09,1.63-11.9,3.81l-1.87-7.24c3.5-2.18,9.1-4.2,15.02-4.2,11.05,0,15.33,4.9,15.09,14.78v12.84c0,2.72,.47,3.11,3.19,3.27l-.7,6.92c-6.85,.78-10.04-1.32-11.36-4.9h-.31Zm0-12.76c-8.95,1.09-12.21,2.88-12.21,6.69,0,2.72,2.1,4.67,5.37,4.67,2.88,0,5.21-1.32,6.85-3.11v-8.25Z"/>
    <path class="cls-2" d="M621.19,327.98c-3.58,0-5.6-2.18-5.6-5.52s2.02-5.52,5.6-5.52,5.68,2.26,5.68,5.52-2.02,5.52-5.68,5.52Zm-4.59,42.4v-35.63l9.18-1.32v36.96h-9.18Z"/>
    <path class="cls-2" d="M658.93,370.38v-21.86c0-5.29-2.1-7.08-6.22-7.08-3.19,0-6.15,1.63-7.94,3.35v25.6h-9.18v-35.71l9.18-1.24v5.68c3.19-3.5,7.47-5.76,11.83-5.76,7.24,0,11.51,4.67,11.51,12.37v24.66h-9.18Z"/>
    <path class="cls-2" d="M696.5,366.26c-2.57,3.11-5.68,5.29-10.11,5.29-6.46,0-11.13-4.43-11.13-10.11,0-6.61,4.82-12.22,21.24-12.76v-.86c0-4.82-2.02-6.85-7.16-6.85-3.66,0-8.09,1.63-11.9,3.81l-1.87-7.24c3.5-2.18,9.1-4.2,15.02-4.2,11.05,0,15.33,4.9,15.09,14.78v12.84c0,2.72,.47,3.11,3.19,3.27l-.7,6.92c-6.85,.78-10.04-1.32-11.36-4.9h-.31Zm0-12.76c-8.95,1.09-12.22,2.88-12.22,6.69,0,2.72,2.1,4.67,5.37,4.67,2.88,0,5.21-1.32,6.85-3.11v-8.25Z"/>
    <path class="cls-2" d="M731.9,371.47c-2.33,0-5.68-.47-8.01-1.24l-8.79,1.32v-53.14l9.18-1.24v20.77c2.41-2.33,5.68-4.59,10.04-4.59,9.49,0,15.72,7.7,15.72,18.75s-7.94,19.37-18.13,19.37Zm-.23-30.42c-3.03,0-5.37,1.17-7.39,2.96,0-.23,0,18.13,0,18.13,1.71,1.32,4.05,2.02,6.77,2.02,6.15,0,9.65-4.98,9.65-11.67s-3.35-11.44-9.02-11.44Z"/>
    <path class="cls-2" d="M762.09,327.98c-3.58,0-5.6-2.18-5.6-5.52s2.02-5.52,5.6-5.52,5.68,2.26,5.68,5.52-2.02,5.52-5.68,5.52Zm-4.59,42.4v-35.63l9.18-1.32v36.96h-9.18Z"/>
    <path class="cls-2" d="M776.48,370.38v-51.97l9.18-1.24v53.22h-9.18Z"/>
    <path class="cls-2" d="M800.05,327.98c-3.58,0-5.6-2.18-5.6-5.52s2.02-5.52,5.6-5.52,5.68,2.26,5.68,5.52-2.02,5.52-5.68,5.52Zm-4.59,42.4v-35.63l9.18-1.32v36.96h-9.18Z"/>
    <path class="cls-2" d="M827.12,371.55c-8.01,0-12.21-3.5-11.9-12.14l.54-16.88-5.6-.62,.23-5.83,5.6-1.79,.16-7.94h8.87l-.16,8.4h10.11l-.23,7.55h-10.43l-.47,16.57c-.08,3.35,1.63,4.9,4.75,4.9,1.87,0,3.73-.47,5.6-1.09l1.24,7.47c-2.72,.93-5.21,1.4-8.33,1.4Z"/>
    <path class="cls-2" d="M860.73,369.68l-2.1,5.6c-3.58,9.8-7.62,12.76-14.24,12.76-3.27,0-6.22-.78-9.1-2.1l2.72-7.55c2.1,1.01,3.81,1.71,5.68,1.71,2.65,0,4.05-1.17,5.99-6.07l1.56-4.12-14-35.4h9.88l8.95,25.68,8.56-25.68h9.8l-13.69,35.17Z"/>
  </g>
  <path class="cls-1" d="M.6,35.08C.22,34.76,0,34.29,0,33.8V1.66C0,.74,.74,0,1.66,0H171.23c.92,0,1.66,.74,1.66,1.66V173.55c0,1.4-1.63,2.17-2.71,1.28l-49.07-40.44c-.38-.31-.52-.82-.38-1.29,2.38-7.73,1.22-17.01-5.76-26.07-.1-.13-.22-.25-.35-.34-10.7-7.95-21.83-7.98-30.19-3.5-.43,.23-.96,.19-1.34-.12L.6,35.08Zm196.22,102.4v98.2c0,1.2,1.24,2.01,2.34,1.51l47.92-21.64c.6-.27,.98-.87,.97-1.53,0-.04,0-.07,0-.11,0-14.05,11.39-25.43,25.43-25.43,6.5,0,12.43,2.44,16.92,6.46,.48,.43,1.18,.52,1.77,.26l77.08-34.8c.59-.27,.98-.86,.98-1.51V1.66c0-.92-.74-1.66-1.66-1.66h-22.97c-.42,0-.82,.16-1.12,.44L197.36,136.26c-.34,.31-.53,.76-.53,1.22Zm0-135.82V112.6c0,1.44,1.72,2.2,2.78,1.22L319.8,2.87c1.11-1.02,.38-2.87-1.12-2.87h-120.19c-.92,0-1.66,.74-1.66,1.66Zm173.42,280.67v-103.39c0-1.2-1.24-2.01-2.34-1.51l-68.32,30.84c-.67,.3-1.07,1.01-.96,1.74,.2,1.27,.3,2.58,.3,3.9,0,3.75-.81,7.3-2.27,10.5-.31,.68-.11,1.48,.47,1.96l70.41,57.24c1.08,.88,2.7,.11,2.7-1.29Zm-83.79-45.35c-.5-.4-1.18-.5-1.76-.22-3.38,1.66-7.18,2.59-11.2,2.59-7.86,0-14.88-3.56-19.54-9.16-.47-.57-1.27-.75-1.94-.44l-54.21,24.47c-.59,.27-.98,.86-.98,1.51v112.86c0,.92,.74,1.66,1.66,1.66h170.1c.92,0,1.66-.74,1.66-1.66v-62.71c0-.5-.22-.97-.61-1.29l-83.18-67.62ZM72.09,118.17c.29-.95,.64-1.88,1.03-2.79,.22-.5,.09-1.08-.32-1.42L2.71,56.2C1.63,55.31,0,56.08,0,57.48v60.19C0,118.58,.74,119.33,1.66,119.33H70.52c.72,0,1.37-.46,1.58-1.15Zm-3.63,171.44c.31-.65,.16-1.43-.36-1.92-4.99-4.64-8.11-11.26-8.11-18.61,0-.28,0-.56,.02-.84,.03-.72-.4-1.37-1.07-1.62L2.24,245.2C1.16,244.79,0,245.59,0,246.75v121.84C0,369.5,.74,370.24,1.66,370.24H29c.64,0,1.22-.37,1.5-.94l37.97-79.69Zm104.42,78.97v-57.76c0-.69-.43-1.31-1.07-1.55l-64.9-24.53c-.66-.25-1.4-.06-1.85,.48-4.67,5.66-11.73,9.28-19.64,9.28-.53,0-1.05-.02-1.57-.05-.67-.04-1.29,.33-1.58,.94l-34.53,72.47c-.52,1.1,.28,2.37,1.5,2.37h121.99c.92,0,1.66-.74,1.66-1.66Zm-87.46-124.94c14.05,0,25.43,11.39,25.43,25.43,0,0,0,0,0,.01,0,.69,.41,1.31,1.06,1.56l58.72,22.19c1.08,.41,2.24-.39,2.24-1.55v-94.06c0-.49-.22-.96-.6-1.28l-59.92-49.39c-.42-.35-1.01-.36-1.46-.05-4.11,2.85-9.1,4.52-14.48,4.52-10.62,0-19.72-6.51-23.53-15.75-.25-.61-.86-1-1.52-1H1.66C.74,134.29,0,135.03,0,135.94v91.26C0,227.9,.43,228.52,1.07,228.76l63.44,23.98c.64,.24,1.36,.07,1.82-.44,4.66-5.3,11.49-8.64,19.1-8.64Z"/>
</svg>